<?xml version="1.0" encoding="iso-8859-1"?>
<!-- Generator: Adobe Illustrator 18.0.0, SVG Export Plug-In . SVG Version: 6.00 Build 0)  -->
<!DOCTYPE svg PUBLIC "-//W3C//DTD SVG 1.1//EN" "http://www.w3.org/Graphics/SVG/1.1/DTD/svg11.dtd">
<svg version="1.1" id="Capa_1" xmlns="http://www.w3.org/2000/svg" xmlns:xlink="http://www.w3.org/1999/xlink" x="0px" y="0px"
	 viewBox="0 0 297 297" style="enable-background:new 0 0 297 297;" xml:space="preserve">
<g>
	<path d="M243.665,89.152L243.664,9.15c0-4.613-3.753-8.366-8.366-8.366H61.7c-4.612,0-8.365,3.753-8.365,8.366l0.001,80.002
		H243.665z"/>
	<path d="M36.604,89.152l-0.001-72.682H10.458C4.683,16.471,0,21.153,0,26.929v51.766c0,5.775,4.683,10.458,10.458,10.458H36.604z"
		/>
	<path d="M278.176,198.436v-66.93c0-14.993-12.196-27.19-27.19-27.19H46.015c-14.992,0-27.189,12.196-27.189,27.19v66.93
		c0,14.993,12.197,27.191,27.189,27.191h204.972C265.979,225.626,278.176,213.429,278.176,198.436z M62.223,190.593
		c-14.128,0-25.622-11.493-25.622-25.622c0-14.128,11.494-25.621,25.622-25.621c14.128,0,25.621,11.493,25.621,25.621
		C87.844,179.1,76.351,190.593,62.223,190.593z M122.355,190.854c0,4.621-3.746,8.366-8.366,8.366c-4.62,0-8.366-3.745-8.366-8.366
		v-51.766c0-4.62,3.746-8.366,8.366-8.366c4.62,0,8.366,3.746,8.366,8.366V190.854z M156.866,190.854
		c0,4.621-3.746,8.366-8.366,8.366s-8.366-3.745-8.366-8.366v-51.766c0-4.62,3.746-8.366,8.366-8.366s8.366,3.746,8.366,8.366
		V190.854z M191.377,190.854c0,4.621-3.746,8.366-8.366,8.366c-4.62,0-8.366-3.745-8.366-8.366v-51.766
		c0-4.62,3.746-8.366,8.366-8.366c4.62,0,8.366,3.746,8.366,8.366V190.854z M234.775,190.593c-14.128,0-25.621-11.493-25.621-25.622
		c0-14.128,11.493-25.621,25.621-25.621s25.621,11.493,25.621,25.621C260.397,179.1,248.903,190.593,234.775,190.593z"/>
	<path d="M286.542,89.152c5.775,0,10.458-4.683,10.458-10.458V26.929c0-5.775-4.683-10.458-10.458-10.458h-26.145l0.001,72.682
		H286.542z"/>
	<path d="M46.015,242.358c-10.874,0-20.829-3.981-28.508-10.55c-0.151,0.707-0.253,1.432-0.253,2.184v35.033
		c0,14.993,12.197,27.19,27.19,27.19h18.302c14.993,0,27.19-12.197,27.19-27.19v-26.667H46.015z"/>
	<path d="M250.986,242.358h-43.925v26.667c0,14.993,12.197,27.19,27.19,27.19h18.303c14.993,0,27.19-12.197,27.19-27.19v-35.033
		c0-0.752-0.102-1.476-0.253-2.182C271.814,238.379,261.858,242.358,250.986,242.358z"/>
</g>
<g>
</g>
<g>
</g>
<g>
</g>
<g>
</g>
<g>
</g>
<g>
</g>
<g>
</g>
<g>
</g>
<g>
</g>
<g>
</g>
<g>
</g>
<g>
</g>
<g>
</g>
<g>
</g>
<g>
</g>
</svg>
